<svg version="1.1" xmlns="http://www.w3.org/2000/svg" xmlns:xlink="http://www.w3.org/1999/xlink" width="109.07825" height="33.05" viewBox="0,0,109.07825,33.05"><g transform="translate(-185.46087,-160.55)"><g data-paper-data="{&quot;isPaintingLayer&quot;:true}" fill-rule="nonzero" stroke="none" stroke-linecap="butt" stroke-linejoin="miter" stroke-miterlimit="10" stroke-dasharray="" stroke-dashoffset="0" style="mix-blend-mode: normal"><g fill="#000000" stroke-width="0"><path d="M185.46087,179.9c0,-7.45585 6.65945,-13.5 14.87431,-13.5c8.21486,0 14.87431,6.04415 14.87431,13.5c0,7.45585 -6.65945,13.5 -14.87431,13.5c-8.21486,0 -14.87431,-6.04415 -14.87431,-13.5z"/><path d="M200.225,193.6v-27h79.32964v27z"/><path d="M264.79051,179.9c0,-7.45585 6.65945,-13.5 14.87431,-13.5c8.21486,0 14.87431,6.04415 14.87431,13.5c0,7.45585 -6.65945,13.5 -14.87431,13.5c-8.21486,0 -14.87431,-6.04415 -14.87431,-13.5z"/></g><text transform="translate(191.25,186) scale(0.5,0.5)" font-size="40" xml:space="preserve" fill="#ffffff" fill-rule="nonzero" stroke="none" stroke-width="1" stroke-linecap="butt" stroke-linejoin="miter" stroke-miterlimit="10" stroke-dasharray="" stroke-dashoffset="0" font-family="Pixel" font-weight="normal" text-anchor="start" style="mix-blend-mode: normal"><tspan x="0" dy="0">re_enter</tspan></text></g></g></svg>