<svg version="1.1" xmlns="http://www.w3.org/2000/svg" xmlns:xlink="http://www.w3.org/1999/xlink" width="99" height="32.75" viewBox="0,0,99,32.75"><g transform="translate(-189.5,-160.85)"><g data-paper-data="{&quot;isPaintingLayer&quot;:true}" fill-rule="nonzero" stroke="none" stroke-linecap="butt" stroke-linejoin="miter" stroke-miterlimit="10" stroke-dasharray="" stroke-dashoffset="0" style="mix-blend-mode: normal"><g><g fill="#000000" stroke-width="0"><path d="M189.5,179.9c0,-7.45585 6.04415,-13.5 13.5,-13.5c7.45585,0 13.5,6.04415 13.5,13.5c0,7.45585 -6.04415,13.5 -13.5,13.5c-7.45585,0 -13.5,-6.04415 -13.5,-13.5z"/><path d="M202.9,193.6v-27h72v27z"/><path d="M261.5,179.9c0,-7.45585 6.04415,-13.5 13.5,-13.5c7.45585,0 13.5,6.04415 13.5,13.5c0,7.45585 -6.04415,13.5 -13.5,13.5c-7.45585,0 -13.5,-6.04415 -13.5,-13.5z"/></g><text transform="translate(208.60001,186.3) scale(0.5,0.5)" font-size="40" xml:space="preserve" fill="#ffffff" fill-rule="nonzero" stroke="none" stroke-width="1" stroke-linecap="butt" stroke-linejoin="miter" stroke-miterlimit="10" stroke-dasharray="" stroke-dashoffset="0" font-family="Pixel" font-weight="normal" text-anchor="start" style="mix-blend-mode: normal"><tspan x="0" dy="0">start</tspan></text></g></g></g></svg>